<mxfile host="app.diagrams.net" modified="2023-09-09T14:48:53.971Z" agent="Mozilla/5.0 (X11; Ubuntu; Linux x86_64; rv:109.0) Gecko/20100101 Firefox/117.0" etag="jz817lVKCI56c7Cy56vl" version="21.6.6" type="device">
  <diagram name="Page-1" id="3iJhMCqtSs_EPttf88cd">
    <mxGraphModel dx="2265" dy="1293" grid="1" gridSize="10" guides="1" tooltips="1" connect="1" arrows="1" fold="1" page="1" pageScale="1" pageWidth="850" pageHeight="1100" math="0" shadow="0">
      <root>
        <mxCell id="0" />
        <mxCell id="1" parent="0" />
        <mxCell id="t_ZIJ9nXfUMjoGaq77Y5-29" value="A" style="text;strokeColor=none;align=center;fillColor=none;html=1;verticalAlign=middle;whiteSpace=wrap;rounded=0;fontFamily=Lato;fontSource=https%3A%2F%2Ffonts.googleapis.com%2Fcss%3Ffamily%3DLato;fontColor=#666666;" parent="1" vertex="1">
          <mxGeometry x="330" y="320" width="30" height="20" as="geometry" />
        </mxCell>
        <mxCell id="t_ZIJ9nXfUMjoGaq77Y5-31" value="" style="rounded=0;whiteSpace=wrap;html=1;strokeColor=#00A499;strokeWidth=2;shadow=1;" parent="1" vertex="1">
          <mxGeometry x="400" y="320" width="80" height="40" as="geometry" />
        </mxCell>
        <mxCell id="t_ZIJ9nXfUMjoGaq77Y5-37" value="" style="endArrow=none;html=1;rounded=0;strokeWidth=2;strokeColor=#05C3DE;startArrow=oval;startFill=0;startSize=12;" parent="1" edge="1">
          <mxGeometry width="50" height="50" relative="1" as="geometry">
            <mxPoint x="360" y="330" as="sourcePoint" />
            <mxPoint x="400" y="330" as="targetPoint" />
          </mxGeometry>
        </mxCell>
        <mxCell id="t_ZIJ9nXfUMjoGaq77Y5-38" value="" style="endArrow=none;html=1;rounded=0;strokeWidth=2;strokeColor=#05C3DE;startArrow=oval;startFill=0;startSize=12;" parent="1" edge="1">
          <mxGeometry width="50" height="50" relative="1" as="geometry">
            <mxPoint x="360" y="350" as="sourcePoint" />
            <mxPoint x="400" y="350" as="targetPoint" />
          </mxGeometry>
        </mxCell>
        <mxCell id="t_ZIJ9nXfUMjoGaq77Y5-39" value="" style="rounded=0;whiteSpace=wrap;html=1;strokeColor=#00A499;strokeWidth=2;shadow=1;" parent="1" vertex="1">
          <mxGeometry x="400" y="400" width="80" height="40" as="geometry" />
        </mxCell>
        <mxCell id="t_ZIJ9nXfUMjoGaq77Y5-40" value="" style="endArrow=none;html=1;rounded=0;strokeWidth=2;strokeColor=#05C3DE;startArrow=oval;startFill=0;startSize=12;" parent="1" edge="1">
          <mxGeometry width="50" height="50" relative="1" as="geometry">
            <mxPoint x="360" y="410" as="sourcePoint" />
            <mxPoint x="400" y="410" as="targetPoint" />
          </mxGeometry>
        </mxCell>
        <mxCell id="t_ZIJ9nXfUMjoGaq77Y5-41" value="" style="endArrow=none;html=1;rounded=0;strokeWidth=2;strokeColor=#05C3DE;startArrow=oval;startFill=0;startSize=12;" parent="1" edge="1">
          <mxGeometry width="50" height="50" relative="1" as="geometry">
            <mxPoint x="360" y="430" as="sourcePoint" />
            <mxPoint x="400" y="430" as="targetPoint" />
          </mxGeometry>
        </mxCell>
        <mxCell id="t_ZIJ9nXfUMjoGaq77Y5-42" value="" style="rounded=0;whiteSpace=wrap;html=1;strokeColor=#00A499;strokeWidth=2;shadow=1;rotation=-180;container=0;" parent="1" vertex="1">
          <mxGeometry x="560" y="400" width="80" height="40" as="geometry" />
        </mxCell>
        <mxCell id="t_ZIJ9nXfUMjoGaq77Y5-43" value="" style="endArrow=none;html=1;rounded=0;strokeWidth=2;strokeColor=#05C3DE;startArrow=oval;startFill=0;startSize=12;" parent="1" edge="1">
          <mxGeometry width="50" height="50" relative="1" as="geometry">
            <mxPoint x="680" y="430" as="sourcePoint" />
            <mxPoint x="640" y="430" as="targetPoint" />
          </mxGeometry>
        </mxCell>
        <mxCell id="t_ZIJ9nXfUMjoGaq77Y5-44" value="" style="endArrow=none;html=1;rounded=0;strokeWidth=2;strokeColor=#05C3DE;startArrow=oval;startFill=0;startSize=12;" parent="1" edge="1">
          <mxGeometry width="50" height="50" relative="1" as="geometry">
            <mxPoint x="680" y="410" as="sourcePoint" />
            <mxPoint x="640" y="410" as="targetPoint" />
          </mxGeometry>
        </mxCell>
        <mxCell id="t_ZIJ9nXfUMjoGaq77Y5-45" value="" style="rounded=0;whiteSpace=wrap;html=1;strokeColor=#00A499;strokeWidth=2;shadow=1;rotation=-180;container=0;" parent="1" vertex="1">
          <mxGeometry x="560" y="320" width="80" height="40" as="geometry" />
        </mxCell>
        <mxCell id="t_ZIJ9nXfUMjoGaq77Y5-46" value="" style="endArrow=none;html=1;rounded=0;strokeWidth=2;strokeColor=#05C3DE;startArrow=oval;startFill=0;startSize=12;" parent="1" edge="1">
          <mxGeometry width="50" height="50" relative="1" as="geometry">
            <mxPoint x="680" y="350" as="sourcePoint" />
            <mxPoint x="640" y="350" as="targetPoint" />
          </mxGeometry>
        </mxCell>
        <mxCell id="t_ZIJ9nXfUMjoGaq77Y5-47" value="" style="endArrow=none;html=1;rounded=0;strokeWidth=2;strokeColor=#05C3DE;startArrow=oval;startFill=0;startSize=12;" parent="1" edge="1">
          <mxGeometry width="50" height="50" relative="1" as="geometry">
            <mxPoint x="680" y="330" as="sourcePoint" />
            <mxPoint x="640" y="330" as="targetPoint" />
          </mxGeometry>
        </mxCell>
        <mxCell id="t_ZIJ9nXfUMjoGaq77Y5-49" value="" style="endArrow=none;html=1;rounded=0;strokeWidth=2;strokeColor=#05C3DE;startArrow=none;startFill=0;startSize=12;" parent="1" edge="1">
          <mxGeometry width="50" height="50" relative="1" as="geometry">
            <mxPoint x="480" y="330" as="sourcePoint" />
            <mxPoint x="560" y="330" as="targetPoint" />
          </mxGeometry>
        </mxCell>
        <mxCell id="t_ZIJ9nXfUMjoGaq77Y5-50" value="" style="endArrow=none;html=1;rounded=0;strokeWidth=2;strokeColor=#05C3DE;startArrow=none;startFill=0;startSize=12;exitX=1;exitY=0.75;exitDx=0;exitDy=0;entryX=1;entryY=0.75;entryDx=0;entryDy=0;" parent="1" source="t_ZIJ9nXfUMjoGaq77Y5-31" target="t_ZIJ9nXfUMjoGaq77Y5-42" edge="1">
          <mxGeometry width="50" height="50" relative="1" as="geometry">
            <mxPoint x="490" y="340" as="sourcePoint" />
            <mxPoint x="570" y="340" as="targetPoint" />
          </mxGeometry>
        </mxCell>
        <mxCell id="t_ZIJ9nXfUMjoGaq77Y5-51" value="" style="endArrow=none;html=1;rounded=0;strokeWidth=2;strokeColor=#05C3DE;startArrow=none;startFill=0;startSize=12;entryX=1;entryY=0.25;entryDx=0;entryDy=0;" parent="1" target="t_ZIJ9nXfUMjoGaq77Y5-45" edge="1">
          <mxGeometry width="50" height="50" relative="1" as="geometry">
            <mxPoint x="480" y="410" as="sourcePoint" />
            <mxPoint x="560" y="410" as="targetPoint" />
          </mxGeometry>
        </mxCell>
        <mxCell id="t_ZIJ9nXfUMjoGaq77Y5-52" value="" style="endArrow=none;html=1;rounded=0;strokeWidth=2;strokeColor=#05C3DE;startArrow=none;startFill=0;startSize=12;" parent="1" edge="1">
          <mxGeometry width="50" height="50" relative="1" as="geometry">
            <mxPoint x="480" y="430" as="sourcePoint" />
            <mxPoint x="560" y="430" as="targetPoint" />
          </mxGeometry>
        </mxCell>
        <mxCell id="t_ZIJ9nXfUMjoGaq77Y5-54" value="" style="shape=flexArrow;endArrow=classic;html=1;rounded=0;strokeColor=#00A499;fillColor=#05C3DE;opacity=30;" parent="1" edge="1">
          <mxGeometry width="50" height="50" relative="1" as="geometry">
            <mxPoint x="280" y="380" as="sourcePoint" />
            <mxPoint x="320" y="380" as="targetPoint" />
          </mxGeometry>
        </mxCell>
        <mxCell id="t_ZIJ9nXfUMjoGaq77Y5-56" value="B" style="text;strokeColor=none;align=center;fillColor=none;html=1;verticalAlign=middle;whiteSpace=wrap;rounded=0;fontFamily=Lato;fontSource=https%3A%2F%2Ffonts.googleapis.com%2Fcss%3Ffamily%3DLato;fontColor=#666666;" parent="1" vertex="1">
          <mxGeometry x="330" y="340" width="30" height="20" as="geometry" />
        </mxCell>
        <mxCell id="t_ZIJ9nXfUMjoGaq77Y5-57" value="C" style="text;strokeColor=none;align=center;fillColor=none;html=1;verticalAlign=middle;whiteSpace=wrap;rounded=0;fontFamily=Lato;fontSource=https%3A%2F%2Ffonts.googleapis.com%2Fcss%3Ffamily%3DLato;fontColor=#666666;" parent="1" vertex="1">
          <mxGeometry x="330" y="400" width="30" height="20" as="geometry" />
        </mxCell>
        <mxCell id="t_ZIJ9nXfUMjoGaq77Y5-58" value="D" style="text;strokeColor=none;align=center;fillColor=none;html=1;verticalAlign=middle;whiteSpace=wrap;rounded=0;fontFamily=Lato;fontSource=https%3A%2F%2Ffonts.googleapis.com%2Fcss%3Ffamily%3DLato;fontColor=#666666;" parent="1" vertex="1">
          <mxGeometry x="330" y="420" width="30" height="20" as="geometry" />
        </mxCell>
        <mxCell id="t_ZIJ9nXfUMjoGaq77Y5-59" value="E" style="text;strokeColor=none;align=center;fillColor=none;html=1;verticalAlign=middle;whiteSpace=wrap;rounded=0;fontFamily=Lato;fontSource=https%3A%2F%2Ffonts.googleapis.com%2Fcss%3Ffamily%3DLato;fontColor=#666666;" parent="1" vertex="1">
          <mxGeometry x="680" y="320" width="30" height="20" as="geometry" />
        </mxCell>
        <mxCell id="t_ZIJ9nXfUMjoGaq77Y5-60" value="F" style="text;strokeColor=none;align=center;fillColor=none;html=1;verticalAlign=middle;whiteSpace=wrap;rounded=0;fontFamily=Lato;fontSource=https%3A%2F%2Ffonts.googleapis.com%2Fcss%3Ffamily%3DLato;fontColor=#666666;" parent="1" vertex="1">
          <mxGeometry x="680" y="340" width="30" height="20" as="geometry" />
        </mxCell>
        <mxCell id="t_ZIJ9nXfUMjoGaq77Y5-61" value="G" style="text;strokeColor=none;align=center;fillColor=none;html=1;verticalAlign=middle;whiteSpace=wrap;rounded=0;fontFamily=Lato;fontSource=https%3A%2F%2Ffonts.googleapis.com%2Fcss%3Ffamily%3DLato;fontColor=#666666;" parent="1" vertex="1">
          <mxGeometry x="680" y="400" width="30" height="20" as="geometry" />
        </mxCell>
        <mxCell id="t_ZIJ9nXfUMjoGaq77Y5-62" value="H" style="text;strokeColor=none;align=center;fillColor=none;html=1;verticalAlign=middle;whiteSpace=wrap;rounded=0;fontFamily=Lato;fontSource=https%3A%2F%2Ffonts.googleapis.com%2Fcss%3Ffamily%3DLato;fontColor=#666666;" parent="1" vertex="1">
          <mxGeometry x="680" y="420" width="30" height="20" as="geometry" />
        </mxCell>
        <mxCell id="t_ZIJ9nXfUMjoGaq77Y5-64" value="" style="endArrow=none;html=1;rounded=0;strokeWidth=1;strokeColor=#FFB81C;startArrow=none;startFill=0;startSize=12;dashed=1;" parent="1" edge="1">
          <mxGeometry width="50" height="50" relative="1" as="geometry">
            <mxPoint x="370" y="325" as="sourcePoint" />
            <mxPoint x="670" y="325" as="targetPoint" />
          </mxGeometry>
        </mxCell>
        <mxCell id="t_ZIJ9nXfUMjoGaq77Y5-65" value="" style="endArrow=cross;html=1;rounded=0;strokeWidth=1;strokeColor=#E4002B;startArrow=none;startFill=0;startSize=12;dashed=1;endFill=0;jumpSize=6;" parent="1" edge="1">
          <mxGeometry width="50" height="50" relative="1" as="geometry">
            <mxPoint x="370" y="345" as="sourcePoint" />
            <mxPoint x="490" y="345" as="targetPoint" />
          </mxGeometry>
        </mxCell>
        <mxCell id="t_ZIJ9nXfUMjoGaq77Y5-67" value="&lt;font color=&quot;#e4002b&quot;&gt;F?&lt;/font&gt;" style="text;strokeColor=none;align=center;fillColor=none;html=1;verticalAlign=middle;whiteSpace=wrap;rounded=0;fontFamily=Lato;fontSource=https%3A%2F%2Ffonts.googleapis.com%2Fcss%3Ffamily%3DLato;fontColor=#666666;" parent="1" vertex="1">
          <mxGeometry x="482" y="334" width="30" height="20" as="geometry" />
        </mxCell>
        <mxCell id="t_ZIJ9nXfUMjoGaq77Y5-69" value="" style="group" parent="1" vertex="1" connectable="0">
          <mxGeometry x="170" y="340" width="78" height="80" as="geometry" />
        </mxCell>
        <mxCell id="t_ZIJ9nXfUMjoGaq77Y5-1" value="" style="endArrow=none;html=1;rounded=0;strokeWidth=2;strokeColor=#05C3DE;startArrow=oval;startFill=0;startSize=7;opacity=30;" parent="t_ZIJ9nXfUMjoGaq77Y5-69" edge="1">
          <mxGeometry width="50" height="50" relative="1" as="geometry">
            <mxPoint y="16" as="sourcePoint" />
            <mxPoint x="78" y="16" as="targetPoint" />
          </mxGeometry>
        </mxCell>
        <mxCell id="t_ZIJ9nXfUMjoGaq77Y5-2" value="" style="endArrow=none;html=1;rounded=0;strokeWidth=2;strokeColor=#05C3DE;startArrow=oval;startFill=0;startSize=7;opacity=30;" parent="t_ZIJ9nXfUMjoGaq77Y5-69" edge="1">
          <mxGeometry width="50" height="50" relative="1" as="geometry">
            <mxPoint y="32" as="sourcePoint" />
            <mxPoint x="78" y="32" as="targetPoint" />
          </mxGeometry>
        </mxCell>
        <mxCell id="t_ZIJ9nXfUMjoGaq77Y5-3" value="" style="endArrow=none;html=1;rounded=0;strokeWidth=2;strokeColor=#05C3DE;startArrow=oval;startFill=0;startSize=7;opacity=30;" parent="t_ZIJ9nXfUMjoGaq77Y5-69" edge="1">
          <mxGeometry width="50" height="50" relative="1" as="geometry">
            <mxPoint y="48" as="sourcePoint" />
            <mxPoint x="78" y="48" as="targetPoint" />
          </mxGeometry>
        </mxCell>
        <mxCell id="t_ZIJ9nXfUMjoGaq77Y5-4" value="" style="endArrow=none;html=1;rounded=0;strokeWidth=2;strokeColor=#05C3DE;startArrow=oval;startFill=0;startSize=7;opacity=30;" parent="t_ZIJ9nXfUMjoGaq77Y5-69" edge="1">
          <mxGeometry width="50" height="50" relative="1" as="geometry">
            <mxPoint y="64" as="sourcePoint" />
            <mxPoint x="78" y="64" as="targetPoint" />
          </mxGeometry>
        </mxCell>
        <mxCell id="t_ZIJ9nXfUMjoGaq77Y5-9" value="" style="endArrow=none;html=1;rounded=0;strokeWidth=2;strokeColor=#05C3DE;startArrow=oval;startFill=0;startSize=7;opacity=30;" parent="t_ZIJ9nXfUMjoGaq77Y5-69" edge="1">
          <mxGeometry width="50" height="50" relative="1" as="geometry">
            <mxPoint x="62.400000000000006" as="sourcePoint" />
            <mxPoint x="62.400000000000006" y="80" as="targetPoint" />
          </mxGeometry>
        </mxCell>
        <mxCell id="t_ZIJ9nXfUMjoGaq77Y5-10" value="" style="endArrow=none;html=1;rounded=0;strokeWidth=2;strokeColor=#05C3DE;startArrow=oval;startFill=0;startSize=7;opacity=30;" parent="t_ZIJ9nXfUMjoGaq77Y5-69" edge="1">
          <mxGeometry width="50" height="50" relative="1" as="geometry">
            <mxPoint x="46.800000000000004" as="sourcePoint" />
            <mxPoint x="46.800000000000004" y="80" as="targetPoint" />
          </mxGeometry>
        </mxCell>
        <mxCell id="t_ZIJ9nXfUMjoGaq77Y5-11" value="" style="endArrow=none;html=1;rounded=0;strokeWidth=2;strokeColor=#05C3DE;startArrow=oval;startFill=0;startSize=7;opacity=30;" parent="t_ZIJ9nXfUMjoGaq77Y5-69" edge="1">
          <mxGeometry width="50" height="50" relative="1" as="geometry">
            <mxPoint x="31.200000000000003" as="sourcePoint" />
            <mxPoint x="31.200000000000003" y="80" as="targetPoint" />
          </mxGeometry>
        </mxCell>
        <mxCell id="t_ZIJ9nXfUMjoGaq77Y5-12" value="" style="endArrow=none;html=1;rounded=0;strokeWidth=2;strokeColor=#05C3DE;startArrow=oval;startFill=0;startSize=7;opacity=30;" parent="t_ZIJ9nXfUMjoGaq77Y5-69" edge="1">
          <mxGeometry width="50" height="50" relative="1" as="geometry">
            <mxPoint x="15.600000000000001" as="sourcePoint" />
            <mxPoint x="15.600000000000001" y="80" as="targetPoint" />
          </mxGeometry>
        </mxCell>
      </root>
    </mxGraphModel>
  </diagram>
</mxfile>
